<svg version="1.1" id="Layer_1" xmlns="http://www.w3.org/2000/svg" xmlns:xlink="http://www.w3.org/1999/xlink" x="0px" y="0px" width="100%" viewBox="0 0 2903 2903" enable-background="new 0 0 2903 2903" xml:space="preserve">
<path fill="#FD0000" opacity="1.000000" stroke="none" d="
M2906.000000,1346.000000 
	C2906.000000,1417.375122 2906.000000,1488.750244 2905.248779,1560.497437 
	C2903.783691,1562.631226 2902.603027,1564.348389 2902.429932,1566.161743 
	C2900.946533,1581.687988 2899.863770,1597.254517 2898.249023,1612.765991 
	C2893.811279,1655.397461 2887.335938,1697.730835 2878.912354,1739.756470 
	C2864.182373,1813.244385 2843.877686,1885.166260 2818.014893,1955.514893 
	C2789.361816,2033.455688 2754.223877,2108.366455 2712.662109,2180.247559 
	C2680.633301,2235.642578 2645.020752,2288.659180 2606.051758,2339.411621 
	C2574.020508,2381.128662 2539.927490,2421.144043 2503.324951,2458.867920 
	C2477.844482,2485.129150 2451.210205,2510.333496 2424.195801,2535.030029 
	C2377.976807,2577.282959 2328.784424,2615.903809 2277.025879,2651.176025 
	C2208.688232,2697.746094 2137.257324,2738.860107 2062.016113,2773.365479 
	C2003.580444,2800.163574 1943.743042,2823.131348 1882.326904,2842.066162 
	C1822.210449,2860.599854 1761.159790,2875.360840 1699.078735,2885.343506 
	C1661.744507,2891.347168 1624.078247,2895.326660 1586.520264,2899.877197 
	C1574.999756,2901.272949 1563.331543,2901.415283 1551.759888,2902.454102 
	C1549.645386,2902.644043 1545.193237,2900.507080 1546.000000,2906.000000 
	C1485.958252,2906.000000 1425.916382,2906.000000 1365.368408,2905.209961 
	C1362.724609,2903.726074 1360.626099,2902.615723 1358.442871,2902.411865 
	C1349.522583,2901.577881 1340.542480,2901.318604 1331.645630,2900.309814 
	C1297.025024,2896.383545 1262.325562,2892.966553 1227.845215,2888.032715 
	C1172.183228,2880.067871 1117.418823,2867.560303 1063.264282,2852.488770 
	C1014.862610,2839.018311 967.359375,2822.900146 920.600769,2804.434570 
	C868.219116,2783.748291 817.267883,2760.039062 767.678040,2733.472656 
	C718.058167,2706.890869 670.405334,2677.029053 624.111145,2644.964355 
	C561.051025,2601.286865 502.249573,2552.414307 447.060638,2499.272949 
	C422.145142,2475.281982 398.578064,2449.844238 375.106873,2424.409912 
	C338.065704,2384.270752 304.190857,2341.503906 272.539642,2297.002686 
	C216.626160,2218.389893 168.670883,2135.211182 129.293701,2047.092896 
	C105.105446,1992.964355 84.238861,1937.601562 66.806435,1880.959961 
	C51.248154,1830.407837 38.469231,1779.137573 28.628439,1727.155396 
	C19.234507,1677.533691 12.341936,1627.565308 8.316080,1577.218262 
	C7.204309,1563.314575 6.570423,1549.373047 5.621442,1535.455444 
	C5.459851,1533.085571 6.475374,1529.633179 2.000000,1530.000000 
	C2.000000,1479.958252 2.000000,1429.916382 2.838210,1379.016602 
	C4.335497,1376.393188 5.438757,1374.664429 5.586803,1372.857300 
	C7.700639,1347.054810 9.322798,1321.206909 11.783343,1295.438843 
	C15.827042,1253.091064 22.415922,1211.080933 30.786081,1169.389893 
	C46.129551,1092.965332 67.341751,1018.181824 94.676682,945.150696 
	C117.337601,884.607178 143.874847,825.813293 174.410431,768.850525 
	C211.755753,699.184448 254.552383,633.000732 302.668701,570.284790 
	C338.548859,523.517700 376.769012,478.711182 418.580353,437.161530 
	C445.473846,410.436371 473.294525,384.597137 501.493347,359.243652 
	C543.607544,321.378906 588.582947,287.083862 635.401489,255.210648 
	C703.232849,209.032364 774.231323,168.502243 848.833862,134.221069 
	C915.768860,103.463280 984.543274,77.754265 1055.391357,57.692940 
	C1117.481934,40.111401 1180.341797,25.860193 1244.413574,17.639189 
	C1277.971191,13.333436 1311.651489,9.979187 1345.288696,6.306595 
	C1350.571411,5.729819 1355.932251,5.891685 1361.227539,5.396409 
	C1362.734253,5.255483 1365.696655,5.236870 1364.000000,2.000000 
	C1424.041748,2.000000 1484.083618,2.000000 1544.634277,2.793050 
	C1546.948120,4.270534 1548.712769,5.404552 1550.564209,5.571157 
	C1574.028564,7.682577 1597.523315,9.466975 1620.975098,11.703873 
	C1662.675049,15.681320 1703.965088,22.601725 1744.960327,30.959158 
	C1820.657959,46.391171 1894.805054,67.422569 1967.109497,94.789574 
	C2026.941162,117.435677 2085.075195,143.835876 2141.437988,174.058517 
	C2198.123779,204.454422 2252.396973,238.769287 2304.656738,276.266754 
	C2360.163818,316.094635 2412.364014,359.956360 2461.516846,407.315613 
	C2486.904785,431.777466 2510.952393,457.676392 2534.888672,483.588531 
	C2572.177002,523.955200 2606.176514,567.040771 2638.003418,611.829651 
	C2687.666504,681.718262 2730.998047,755.303162 2767.765625,832.798889 
	C2796.768311,893.928406 2821.505371,956.731873 2841.484619,1021.301941 
	C2871.525635,1118.389771 2892.076660,1217.469116 2900.380615,1318.915161 
	C2901.030273,1326.853760 2901.655518,1334.795410 2902.448242,1342.720093 
	C2902.635010,1344.584595 2902.199219,1347.768555 2906.000000,1346.000000 
M1150.554810,1854.999756 
	C1150.554810,1907.563354 1150.554810,1960.126831 1150.554810,2013.218018 
	C1192.606689,2013.218018 1233.389282,2013.218018 1274.785156,2013.218018 
	C1274.785156,1859.839966 1274.785156,1707.040405 1274.785156,1553.336182 
	C1270.823608,1553.153931 1267.259399,1552.853271 1263.694702,1552.847534 
	C1234.697266,1552.800903 1205.699219,1552.691895 1176.702637,1552.854858 
	C1163.715942,1552.927856 1150.666626,1552.886353 1137.760620,1554.109619 
	C1108.663574,1556.867065 1082.970703,1567.666748 1062.068726,1588.648438 
	C1051.174194,1599.584351 1042.249146,1612.013428 1034.684570,1625.420288 
	C1025.680420,1641.378418 1016.820862,1657.418091 1007.902283,1673.424438 
	C973.363953,1735.411133 938.834534,1797.402710 904.267456,1859.373291 
	C902.603455,1862.356445 900.612854,1865.157593 898.085999,1869.124023 
	C895.246216,1864.208008 893.228271,1860.807007 891.296997,1857.357544 
	C861.186523,1803.579468 831.090515,1749.793335 800.984131,1696.012939 
	C787.477600,1671.885498 774.122375,1647.671143 760.393433,1623.670776 
	C746.750427,1599.820557 729.210022,1579.642944 704.248962,1566.952759 
	C684.201538,1556.760498 662.607361,1553.060669 640.400452,1552.907959 
	C603.072205,1552.651367 565.740967,1552.825684 528.411011,1552.878540 
	C526.187195,1552.881714 523.964172,1553.412964 521.389648,1553.743652 
	C521.389648,1707.108765 521.389648,1859.925415 521.389648,2012.639160 
	C534.258911,2014.814697 638.366211,2014.191772 645.107178,2012.005127 
	C645.195435,2011.688232 645.314331,2011.376343 645.365479,2011.053589 
	C645.469421,2010.398315 645.608704,2009.737305 645.608887,2009.078613 
	C645.634460,1899.088501 645.648865,1789.098389 645.665344,1679.108276 
	C645.665527,1677.775146 645.675720,1676.441772 645.701172,1675.109009 
	C645.713867,1674.443115 645.753174,1673.776367 645.816528,1673.113403 
	C645.847900,1672.785767 645.936584,1672.457397 646.044250,1672.144897 
	C646.145264,1671.852173 646.242493,1671.510132 646.456177,1671.316772 
	C646.689148,1671.105957 647.054504,1671.041504 648.771851,1670.324951 
	C651.605896,1674.083496 655.166077,1677.928833 657.722046,1682.354004 
	C666.552551,1697.642212 675.042908,1713.126831 683.645386,1728.546387 
	C734.934631,1820.480469 786.295288,1912.375122 837.353271,2004.437500 
	C841.232910,2011.432983 845.465210,2014.142456 853.588684,2014.000488 
	C883.576843,2013.476318 913.583740,2013.528809 943.574280,2013.981567 
	C951.227356,2014.097046 955.395508,2011.843506 959.192749,2004.987061 
	C1007.453369,1917.847046 1056.062500,1830.899902 1104.590210,1743.907837 
	C1116.276245,1722.959106 1127.944580,1702.000244 1139.728027,1681.106445 
	C1142.064697,1676.963013 1144.275635,1672.472534 1150.554810,1669.929810 
	C1150.554810,1731.841187 1150.554810,1792.420410 1150.554810,1854.999756 
M1984.078735,1613.000000 
	C1984.079468,1686.315796 1983.843628,1759.632935 1984.263916,1832.946289 
	C1984.357178,1849.199463 1985.363281,1865.703003 1988.359863,1881.637939 
	C1999.135742,1938.940674 2030.941895,1979.822632 2085.891602,2001.287964 
	C2110.097656,2010.743652 2135.587891,2013.714966 2161.397949,2013.731323 
	C2302.031494,2013.820312 2442.664795,2013.786621 2583.298340,2013.765259 
	C2586.176270,2013.764771 2589.054199,2013.400879 2592.455811,2013.171265 
	C2592.629883,2009.289307 2592.904785,2006.007202 2592.905762,2002.724976 
	C2592.928955,1913.412720 2592.938232,1824.100586 2592.913086,1734.788330 
	C2592.907715,1716.103882 2592.047607,1697.491943 2587.875000,1679.169922 
	C2575.717529,1625.786743 2545.458740,1587.293701 2494.388184,1566.281250 
	C2469.708008,1556.127075 2443.663330,1552.822021 2417.113281,1552.831787 
	C2353.461670,1552.855225 2289.809570,1552.912964 2226.158447,1552.749878 
	C2214.514404,1552.720093 2202.786133,1552.427124 2191.245361,1551.029907 
	C2145.521973,1545.494263 2101.961914,1532.212524 2061.099609,1511.118286 
	C2039.259521,1499.843872 2018.577026,1486.323853 1997.400391,1473.769775 
	C1994.301514,1471.932739 1991.509521,1468.869873 1987.489868,1471.218994 
	C1983.675049,1473.448486 1984.094727,1477.364136 1984.087524,1481.030640 
	C1984.083496,1483.030151 1984.081665,1485.029785 1984.081543,1487.029297 
	C1984.080444,1528.352905 1984.079590,1569.676392 1984.078735,1613.000000 
M1480.474731,1222.353882 
	C1471.725342,1176.453369 1466.604004,1130.123291 1464.722656,1083.461670 
	C1462.503906,1028.426636 1464.756958,973.552063 1471.805908,918.895081 
	C1481.270508,845.505920 1498.734009,774.248474 1528.240967,706.178833 
	C1529.525146,703.216125 1530.564697,700.147339 1532.184082,695.908569 
	C1527.733643,695.908569 1524.492432,695.908508 1521.251099,695.908630 
	C1437.270752,695.911865 1353.290039,696.046997 1269.310913,695.718018 
	C1260.738647,695.684387 1256.534790,698.122009 1253.031616,706.187378 
	C1215.002930,793.738647 1196.348755,885.687988 1190.086914,980.461304 
	C1185.078857,1056.259155 1188.962402,1131.642944 1201.989014,1206.510376 
	C1212.421265,1266.467896 1228.739868,1324.698120 1253.444580,1380.438110 
	C1254.900146,1383.722168 1256.538818,1386.925171 1257.823242,1389.604736 
	C1349.598755,1389.604736 1440.351807,1389.604736 1530.932617,1389.604736 
	C1521.054443,1362.107544 1510.305176,1335.558716 1502.047485,1308.256226 
	C1493.673584,1280.569458 1487.761230,1252.138062 1480.474731,1222.353882 
M1565.859863,1295.179810 
	C1575.346924,1327.471558 1586.643677,1359.078003 1601.224365,1389.808594 
	C1692.344116,1389.808594 1783.173462,1389.808594 1874.981812,1389.808594 
	C1873.941650,1386.591064 1873.355347,1384.076538 1872.342773,1381.747070 
	C1836.086426,1298.333130 1817.461792,1210.706665 1810.422852,1120.412109 
	C1805.516113,1057.465942 1806.497070,994.564270 1813.684937,931.785889 
	C1822.681519,853.210693 1840.808105,777.015564 1872.414673,704.284180 
	C1873.418701,701.973755 1873.988403,699.474548 1874.966064,696.421875 
	C1783.137695,696.421875 1692.284058,696.421875 1601.153564,696.421875 
	C1599.346558,700.338379 1597.620239,703.916748 1596.029053,707.554260 
	C1582.253052,739.046143 1570.982544,771.419006 1562.051514,804.606140 
	C1540.347778,885.256531 1531.018921,967.394470 1531.677612,1050.846069 
	C1532.328247,1133.287354 1542.660156,1214.297852 1565.859863,1295.179810 
M1128.999878,1390.343628 
	C1148.501953,1390.343628 1168.004150,1390.343628 1189.026489,1390.343628 
	C1185.534790,1381.961670 1182.710938,1375.298096 1179.975342,1368.598511 
	C1144.056885,1280.630005 1126.914917,1188.689209 1121.890503,1094.176880 
	C1118.875488,1037.461914 1120.895996,980.933228 1127.748779,924.556396 
	C1137.007690,848.384827 1155.002319,774.528320 1185.755737,704.014099 
	C1186.750244,701.733704 1187.267578,699.245239 1188.137451,696.433289 
	C1185.536987,696.210449 1183.893311,695.946777 1182.249756,695.946411 
	C1119.586670,695.933716 1056.919678,695.522583 994.261597,696.087219 
	C944.173401,696.538513 897.693176,731.670349 882.447083,779.979248 
	C866.046448,831.946228 855.904541,885.262573 850.145630,939.401306 
	C842.252380,1013.603760 842.764893,1087.767334 851.924377,1161.850952 
	C860.425659,1230.611450 876.472839,1297.443848 901.960999,1361.992432 
	C909.006836,1379.835815 922.277161,1390.727539 944.011536,1390.528931 
	C1005.003052,1389.971313 1066.003052,1390.340210 1128.999878,1390.343628 
M1878.787109,1136.369141 
	C1881.989014,1171.222534 1886.512695,1205.887939 1893.951538,1240.116699 
	C1901.252563,1273.710693 1910.369629,1306.746216 1925.713867,1337.712280 
	C1933.739868,1353.909302 1942.906982,1369.400024 1957.484741,1380.755249 
	C1974.003906,1393.622925 1991.215088,1393.651855 2007.949341,1381.085815 
	C2018.543579,1373.130493 2026.089722,1362.589233 2032.782349,1351.379883 
	C2043.774292,1332.970215 2051.597656,1313.166260 2058.032959,1292.796753 
	C2078.051270,1229.433350 2086.336914,1164.104614 2089.610840,1098.066650 
	C2092.551025,1038.758667 2091.072754,979.512390 2084.033203,920.479553 
	C2078.897949,877.414307 2071.282227,834.849548 2058.051758,793.447693 
	C2050.936035,771.180786 2042.709473,749.283081 2029.432861,729.894043 
	C2023.296997,720.933105 2015.773926,712.708069 2007.840454,705.255676 
	C2000.661011,698.511658 1991.377197,695.325562 1981.179199,695.931702 
	C1967.583740,696.739868 1957.458130,704.065613 1948.710693,713.603638 
	C1933.831543,729.827515 1924.340576,749.275330 1916.365112,769.503113 
	C1902.618896,804.367126 1894.112671,840.647400 1887.991699,877.515686 
	C1873.836792,962.774475 1871.845581,1048.491943 1878.787109,1136.369141 
M1523.000488,1552.812866 
	C1490.679932,1552.812744 1458.359497,1552.790161 1426.038940,1552.819214 
	C1393.849609,1552.848022 1361.656372,1552.683594 1329.710693,1552.933105 
	C1327.502930,1567.888184 1328.178101,1658.867554 1330.662476,1666.665161 
	C1409.117188,1666.665161 1487.921875,1666.665161 1567.762695,1666.665161 
	C1567.762695,1696.301880 1567.762817,1724.874268 1567.762817,1753.446655 
	C1567.762817,1782.434937 1567.762817,1811.423218 1567.762817,1840.411499 
	C1567.762817,1869.066528 1567.746338,1897.721558 1567.767334,1926.376587 
	C1567.788452,1955.222046 1567.670166,1984.070557 1567.850586,2013.234131 
	C1609.743530,2013.234131 1650.214111,2013.234131 1691.905762,2013.234131 
	C1691.905762,1897.608032 1691.905762,1782.542114 1691.905762,1666.452393 
	C1771.941528,1666.452393 1850.764282,1666.452393 1930.132080,1666.452393 
	C1930.132080,1628.283569 1930.132080,1591.147827 1930.132080,1552.813110 
	C1794.695435,1552.813110 1659.848022,1552.813110 1523.000488,1552.812866 
M426.999390,2013.799316 
	C440.206604,2013.799316 453.413818,2013.799316 467.118958,2013.799316 
	C467.118958,1859.681641 467.118958,1706.912231 467.118958,1554.251099 
	C456.104858,1551.913696 350.791016,1552.296631 343.472870,1554.585449 
	C343.472870,1707.388672 343.472870,1860.185547 343.472870,2013.799316 
	C371.118622,2013.799316 398.059113,2013.799316 426.999390,2013.799316 
z" data-index="0" style="visibility: visible; opacity: 1;"></path>

<path fill="#000000" opacity="1.000000" stroke="none" d="
M1363.062744,2.000000 
	C1365.696655,5.236870 1362.734253,5.255483 1361.227539,5.396409 
	C1355.932251,5.891685 1350.571411,5.729819 1345.288696,6.306595 
	C1311.651489,9.979187 1277.971191,13.333436 1244.413574,17.639189 
	C1180.341797,25.860193 1117.481934,40.111401 1055.391357,57.692940 
	C984.543274,77.754265 915.768860,103.463280 848.833862,134.221069 
	C774.231323,168.502243 703.232849,209.032364 635.401489,255.210648 
	C588.582947,287.083862 543.607544,321.378906 501.493347,359.243652 
	C473.294525,384.597137 445.473846,410.436371 418.580353,437.161530 
	C376.769012,478.711182 338.548859,523.517700 302.668701,570.284790 
	C254.552383,633.000732 211.755753,699.184448 174.410431,768.850525 
	C143.874847,825.813293 117.337601,884.607178 94.676682,945.150696 
	C67.341751,1018.181824 46.129551,1092.965332 30.786081,1169.389893 
	C22.415922,1211.080933 15.827042,1253.091064 11.783343,1295.438843 
	C9.322798,1321.206909 7.700639,1347.054810 5.586803,1372.857300 
	C5.438757,1374.664429 4.335497,1376.393188 2.838210,1378.079224 
	C2.000000,919.479919 2.000000,460.959778 2.000000,2.000000 
	C455.375031,2.000000 908.750183,2.000000 1363.062744,2.000000 
z" data-index="2" style="visibility: hidden; opacity: 1; stroke-width: 2px; stroke: rgb(13, 153, 255);"></path>

<path fill="#000000" opacity="1.000000" stroke="none" d="
M2906.000000,1345.062744 
	C2902.199219,1347.768555 2902.635010,1344.584595 2902.448242,1342.720093 
	C2901.655518,1334.795410 2901.030273,1326.853760 2900.380615,1318.915161 
	C2892.076660,1217.469116 2871.525635,1118.389771 2841.484619,1021.301941 
	C2821.505371,956.731873 2796.768311,893.928406 2767.765625,832.798889 
	C2730.998047,755.303162 2687.666504,681.718262 2638.003418,611.829651 
	C2606.176514,567.040771 2572.177002,523.955200 2534.888672,483.588531 
	C2510.952393,457.676392 2486.904785,431.777466 2461.516846,407.315613 
	C2412.364014,359.956360 2360.163818,316.094635 2304.656738,276.266754 
	C2252.396973,238.769287 2198.123779,204.454422 2141.437988,174.058517 
	C2085.075195,143.835876 2026.941162,117.435677 1967.109497,94.789574 
	C1894.805054,67.422569 1820.657959,46.391171 1744.960327,30.959158 
	C1703.965088,22.601725 1662.675049,15.681320 1620.975098,11.703873 
	C1597.523315,9.466975 1574.028564,7.682577 1550.564209,5.571157 
	C1548.712769,5.404552 1546.948120,4.270534 1545.571533,2.793050 
	C1999.186646,2.000000 2452.373291,2.000000 2906.000000,2.000000 
	C2906.000000,449.375031 2906.000000,896.750183 2906.000000,1345.062744 
z" data-index="4" style="visibility: hidden; opacity: 1;"></path>
<path fill="#FEFCFB" opacity="1.000000" stroke="none" d="
M1150.554810,1853.999756 
	C1150.554810,1792.420410 1150.554810,1731.841187 1150.554810,1669.929810 
	C1144.275635,1672.472534 1142.064697,1676.963013 1139.728027,1681.106445 
	C1127.944580,1702.000244 1116.276245,1722.959106 1104.590210,1743.907837 
	C1056.062500,1830.899902 1007.453369,1917.847046 959.192749,2004.987061 
	C955.395508,2011.843506 951.227356,2014.097046 943.574280,2013.981567 
	C913.583740,2013.528809 883.576843,2013.476318 853.588684,2014.000488 
	C845.465210,2014.142456 841.232910,2011.432983 837.353271,2004.437500 
	C786.295288,1912.375122 734.934631,1820.480469 683.645386,1728.546387 
	C675.042908,1713.126831 666.552551,1697.642212 657.722046,1682.354004 
	C655.166077,1677.928833 651.605896,1674.083496 648.771851,1670.324951 
	C647.054504,1671.041504 646.689148,1671.105957 646.456177,1671.316772 
	C646.242493,1671.510132 646.145264,1671.852173 646.044250,1672.144897 
	C645.936584,1672.457397 645.847900,1672.785767 645.816528,1673.113403 
	C645.753174,1673.776367 645.713867,1674.443115 645.701172,1675.109009 
	C645.675720,1676.441772 645.665527,1677.775146 645.665344,1679.108276 
	C645.648865,1789.098389 645.634460,1899.088501 645.608887,2009.078613 
	C645.608704,2009.737305 645.469421,2010.398315 645.365479,2011.053589 
	C645.314331,2011.376343 645.195435,2011.688232 645.107178,2012.005127 
	C638.366211,2014.191772 534.258911,2014.814697 521.389648,2012.639160 
	C521.389648,1859.925415 521.389648,1707.108765 521.389648,1553.743652 
	C523.964172,1553.412964 526.187195,1552.881714 528.411011,1552.878540 
	C565.740967,1552.825684 603.072205,1552.651367 640.400452,1552.907959 
	C662.607361,1553.060669 684.201538,1556.760498 704.248962,1566.952759 
	C729.210022,1579.642944 746.750427,1599.820557 760.393433,1623.670776 
	C774.122375,1647.671143 787.477600,1671.885498 800.984131,1696.012939 
	C831.090515,1749.793335 861.186523,1803.579468 891.296997,1857.357544 
	C893.228271,1860.807007 895.246216,1864.208008 898.085999,1869.124023 
	C900.612854,1865.157593 902.603455,1862.356445 904.267456,1859.373291 
	C938.834534,1797.402710 973.363953,1735.411133 1007.902283,1673.424438 
	C1016.820862,1657.418091 1025.680420,1641.378418 1034.684570,1625.420288 
	C1042.249146,1612.013428 1051.174194,1599.584351 1062.068726,1588.648438 
	C1082.970703,1567.666748 1108.663574,1556.867065 1137.760620,1554.109619 
	C1150.666626,1552.886353 1163.715942,1552.927856 1176.702637,1552.854858 
	C1205.699219,1552.691895 1234.697266,1552.800903 1263.694702,1552.847534 
	C1267.259399,1552.853271 1270.823608,1553.153931 1274.785156,1553.336182 
	C1274.785156,1707.040405 1274.785156,1859.839966 1274.785156,2013.218018 
	C1233.389282,2013.218018 1192.606689,2013.218018 1150.554810,2013.218018 
	C1150.554810,1960.126831 1150.554810,1907.563354 1150.554810,1853.999756 
z" data-index="5" style="visibility: visible;"></path>
<path fill="#FEFDFD" opacity="1.000000" stroke="none" d="
M1984.078735,1612.000000 
	C1984.079590,1569.676392 1984.080444,1528.352905 1984.081543,1487.029297 
	C1984.081665,1485.029785 1984.083496,1483.030151 1984.087524,1481.030640 
	C1984.094727,1477.364136 1983.675049,1473.448486 1987.489868,1471.218994 
	C1991.509521,1468.869873 1994.301514,1471.932739 1997.400391,1473.769775 
	C2018.577026,1486.323853 2039.259521,1499.843872 2061.099609,1511.118286 
	C2101.961914,1532.212524 2145.521973,1545.494263 2191.245361,1551.029907 
	C2202.786133,1552.427124 2214.514404,1552.720093 2226.158447,1552.749878 
	C2289.809570,1552.912964 2353.461670,1552.855225 2417.113281,1552.831787 
	C2443.663330,1552.822021 2469.708008,1556.127075 2494.388184,1566.281250 
	C2545.458740,1587.293701 2575.717529,1625.786743 2587.875000,1679.169922 
	C2592.047607,1697.491943 2592.907715,1716.103882 2592.913086,1734.788330 
	C2592.938232,1824.100586 2592.928955,1913.412720 2592.905762,2002.724976 
	C2592.904785,2006.007202 2592.629883,2009.289307 2592.455811,2013.171265 
	C2589.054199,2013.400879 2586.176270,2013.764771 2583.298340,2013.765259 
	C2442.664795,2013.786621 2302.031494,2013.820312 2161.397949,2013.731323 
	C2135.587891,2013.714966 2110.097656,2010.743652 2085.891602,2001.287964 
	C2030.941895,1979.822632 1999.135742,1938.940674 1988.359863,1881.637939 
	C1985.363281,1865.703003 1984.357178,1849.199463 1984.263916,1832.946289 
	C1983.843628,1759.632935 1984.079468,1686.315796 1984.078735,1612.000000 
M2303.000000,1666.339478 
	C2238.546143,1666.339478 2174.092529,1666.339478 2109.271973,1666.339478 
	C2108.995361,1670.400879 2108.664551,1673.002441 2108.663330,1675.604370 
	C2108.641846,1728.225952 2108.598145,1780.847778 2108.737793,1833.468994 
	C2108.756348,1840.436279 2109.242188,1847.483521 2110.373779,1854.351807 
	C2114.457031,1879.144653 2129.470703,1894.118774 2154.177734,1898.322754 
	C2159.407471,1899.212646 2164.755127,1899.847046 2170.049316,1899.852051 
	C2266.633301,1899.942383 2363.217529,1899.924438 2459.801514,1899.885864 
	C2462.335938,1899.884766 2464.870605,1899.392944 2467.593262,1899.110596 
	C2467.787598,1896.481079 2468.057861,1894.522583 2468.058594,1892.563965 
	C2468.075684,1836.611938 2468.145020,1780.659546 2467.948730,1724.708130 
	C2467.926758,1718.450195 2466.975342,1712.042358 2465.415283,1705.971191 
	C2460.438721,1686.603149 2448.319824,1673.765503 2428.622070,1669.310303 
	C2420.258057,1667.418579 2411.503906,1666.558716 2402.915039,1666.474243 
	C2370.279541,1666.153687 2337.638672,1666.341675 2303.000000,1666.339478 
z" data-index="6" style="visibility: visible; opacity: 1;"></path>
<path fill="#FFFEFD" opacity="1.000000" stroke="none" d="
M1480.622803,1223.193359 
	C1487.761230,1252.138062 1493.673584,1280.569458 1502.047485,1308.256226 
	C1510.305176,1335.558716 1521.054443,1362.107544 1530.932617,1389.604736 
	C1440.351807,1389.604736 1349.598755,1389.604736 1257.823242,1389.604736 
	C1256.538818,1386.925171 1254.900146,1383.722168 1253.444580,1380.438110 
	C1228.739868,1324.698120 1212.421265,1266.467896 1201.989014,1206.510376 
	C1188.962402,1131.642944 1185.078857,1056.259155 1190.086914,980.461304 
	C1196.348755,885.687988 1215.002930,793.738647 1253.031616,706.187378 
	C1256.534790,698.122009 1260.738647,695.684387 1269.310913,695.718018 
	C1353.290039,696.046997 1437.270752,695.911865 1521.251099,695.908630 
	C1524.492432,695.908508 1527.733643,695.908569 1532.184082,695.908569 
	C1530.564697,700.147339 1529.525146,703.216125 1528.240967,706.178833 
	C1498.734009,774.248474 1481.270508,845.505920 1471.805908,918.895081 
	C1464.756958,973.552063 1462.503906,1028.426636 1464.722656,1083.461670 
	C1466.604004,1130.123291 1471.725342,1176.453369 1480.622803,1223.193359 
z" data-index="7" style="visibility: visible; opacity: 1;"></path>
<path fill="#FFFEFD" opacity="1.000000" stroke="none" d="
M1565.651978,1294.399414 
	C1542.660156,1214.297852 1532.328247,1133.287354 1531.677612,1050.846069 
	C1531.018921,967.394470 1540.347778,885.256531 1562.051514,804.606140 
	C1570.982544,771.419006 1582.253052,739.046143 1596.029053,707.554260 
	C1597.620239,703.916748 1599.346558,700.338379 1601.153564,696.421875 
	C1692.284058,696.421875 1783.137695,696.421875 1874.966064,696.421875 
	C1873.988403,699.474548 1873.418701,701.973755 1872.414673,704.284180 
	C1840.808105,777.015564 1822.681519,853.210693 1813.684937,931.785889 
	C1806.497070,994.564270 1805.516113,1057.465942 1810.422852,1120.412109 
	C1817.461792,1210.706665 1836.086426,1298.333130 1872.342773,1381.747070 
	C1873.355347,1384.076538 1873.941650,1386.591064 1874.981812,1389.808594 
	C1783.173462,1389.808594 1692.344116,1389.808594 1601.224365,1389.808594 
	C1586.643677,1359.078003 1575.346924,1327.471558 1565.651978,1294.399414 
z" data-index="8" style="visibility: visible; opacity: 1;"></path>
<path fill="#FFFEFD" opacity="1.000000" stroke="none" d="
M1127.999756,1390.343628 
	C1066.003052,1390.340210 1005.003052,1389.971313 944.011536,1390.528931 
	C922.277161,1390.727539 909.006836,1379.835815 901.960999,1361.992432 
	C876.472839,1297.443848 860.425659,1230.611450 851.924377,1161.850952 
	C842.764893,1087.767334 842.252380,1013.603760 850.145630,939.401306 
	C855.904541,885.262573 866.046448,831.946228 882.447083,779.979248 
	C897.693176,731.670349 944.173401,696.538513 994.261597,696.087219 
	C1056.919678,695.522583 1119.586670,695.933716 1182.249756,695.946411 
	C1183.893311,695.946777 1185.536987,696.210449 1188.137451,696.433289 
	C1187.267578,699.245239 1186.750244,701.733704 1185.755737,704.014099 
	C1155.002319,774.528320 1137.007690,848.384827 1127.748779,924.556396 
	C1120.895996,980.933228 1118.875488,1037.461914 1121.890503,1094.176880 
	C1126.914917,1188.689209 1144.056885,1280.630005 1179.975342,1368.598511 
	C1182.710938,1375.298096 1185.534790,1381.961670 1189.026489,1390.343628 
	C1168.004150,1390.343628 1148.501953,1390.343628 1127.999756,1390.343628 
z" data-index="9" style="visibility: visible;"></path>
<path fill="#FEFDFD" opacity="1.000000" stroke="none" d="
M1878.712891,1135.445190 
	C1871.845581,1048.491943 1873.836792,962.774475 1887.991699,877.515686 
	C1894.112671,840.647400 1902.618896,804.367126 1916.365112,769.503113 
	C1924.340576,749.275330 1933.831543,729.827515 1948.710693,713.603638 
	C1957.458130,704.065613 1967.583740,696.739868 1981.179199,695.931702 
	C1991.377197,695.325562 2000.661011,698.511658 2007.840454,705.255676 
	C2015.773926,712.708069 2023.296997,720.933105 2029.432861,729.894043 
	C2042.709473,749.283081 2050.936035,771.180786 2058.051758,793.447693 
	C2071.282227,834.849548 2078.897949,877.414307 2084.033203,920.479553 
	C2091.072754,979.512390 2092.551025,1038.758667 2089.610840,1098.066650 
	C2086.336914,1164.104614 2078.051270,1229.433350 2058.032959,1292.796753 
	C2051.597656,1313.166260 2043.774292,1332.970215 2032.782349,1351.379883 
	C2026.089722,1362.589233 2018.543579,1373.130493 2007.949341,1381.085815 
	C1991.215088,1393.651855 1974.003906,1393.622925 1957.484741,1380.755249 
	C1942.906982,1369.400024 1933.739868,1353.909302 1925.713867,1337.712280 
	C1910.369629,1306.746216 1901.252563,1273.710693 1893.951538,1240.116699 
	C1886.512695,1205.887939 1881.989014,1171.222534 1878.712891,1135.445190 
z" data-index="10" style="visibility: visible;"></path>
<path fill="#FEFCFC" opacity="1.000000" stroke="none" d="
M1524.000488,1552.812988 
	C1659.848022,1552.813110 1794.695435,1552.813110 1930.132080,1552.813110 
	C1930.132080,1591.147827 1930.132080,1628.283569 1930.132080,1666.452393 
	C1850.764282,1666.452393 1771.941528,1666.452393 1691.905762,1666.452393 
	C1691.905762,1782.542114 1691.905762,1897.608032 1691.905762,2013.234131 
	C1650.214111,2013.234131 1609.743530,2013.234131 1567.850586,2013.234131 
	C1567.670166,1984.070557 1567.788452,1955.222046 1567.767334,1926.376587 
	C1567.746338,1897.721558 1567.762817,1869.066528 1567.762817,1840.411499 
	C1567.762817,1811.423218 1567.762817,1782.434937 1567.762817,1753.446655 
	C1567.762817,1724.874268 1567.762695,1696.301880 1567.762695,1666.665161 
	C1487.921875,1666.665161 1409.117188,1666.665161 1330.662476,1666.665161 
	C1328.178101,1658.867554 1327.502930,1567.888184 1329.710693,1552.933105 
	C1361.656372,1552.683594 1393.849609,1552.848022 1426.038940,1552.819214 
	C1458.359497,1552.790161 1490.679932,1552.812744 1524.000488,1552.812988 
z" data-index="11" style="visibility: visible;"></path>
<path fill="#FEFAFA" opacity="1.000000" stroke="none" d="
M425.999512,2013.799316 
	C398.059113,2013.799316 371.118622,2013.799316 343.472870,2013.799316 
	C343.472870,1860.185547 343.472870,1707.388672 343.472870,1554.585449 
	C350.791016,1552.296631 456.104858,1551.913696 467.118958,1554.251099 
	C467.118958,1706.912231 467.118958,1859.681641 467.118958,2013.799316 
	C453.413818,2013.799316 440.206604,2013.799316 425.999512,2013.799316 
z" data-index="12" style="visibility: visible;"></path>
<path fill="#FC0203" opacity="1.000000" stroke="none" d="
M2304.000000,1666.339478 
	C2337.638672,1666.341675 2370.279541,1666.153687 2402.915039,1666.474243 
	C2411.503906,1666.558716 2420.258057,1667.418579 2428.622070,1669.310303 
	C2448.319824,1673.765503 2460.438721,1686.603149 2465.415283,1705.971191 
	C2466.975342,1712.042358 2467.926758,1718.450195 2467.948730,1724.708130 
	C2468.145020,1780.659546 2468.075684,1836.611938 2468.058594,1892.563965 
	C2468.057861,1894.522583 2467.787598,1896.481079 2467.593262,1899.110596 
	C2464.870605,1899.392944 2462.335938,1899.884766 2459.801514,1899.885864 
	C2363.217529,1899.924438 2266.633301,1899.942383 2170.049316,1899.852051 
	C2164.755127,1899.847046 2159.407471,1899.212646 2154.177734,1898.322754 
	C2129.470703,1894.118774 2114.457031,1879.144653 2110.373779,1854.351807 
	C2109.242188,1847.483521 2108.756348,1840.436279 2108.737793,1833.468994 
	C2108.598145,1780.847778 2108.641846,1728.225952 2108.663330,1675.604370 
	C2108.664551,1673.002441 2108.995361,1670.400879 2109.271973,1666.339478 
	C2174.092529,1666.339478 2238.546143,1666.339478 2304.000000,1666.339478 
z" data-index="13" style="visibility: visible; opacity: 1;"></path>
</svg>